<svg width="317" height="243" viewBox="0 0 317 243" fill="none" xmlns="http://www.w3.org/2000/svg">
<path d="M228.276 59.3252C228.158 54.3325 229.803 50.2796 233.799 46.9903C237.501 43.9359 240.38 40.0592 243.318 36.3C244.493 34.7728 245.727 33.833 247.724 34.068C250.075 34.3617 251.837 33.0107 253.6 31.7772C256.362 29.8976 259.182 28.3117 262.649 28.018C265.117 27.8417 267.35 26.5495 269.347 25.1398C275.282 20.9694 281.099 16.6228 284.977 10.3379C285.094 10.1617 285.212 9.98544 285.329 9.86796C286.093 8.86942 286.798 7.40097 288.326 8.10583C289.736 8.75194 289.325 10.2791 289.207 11.5126C288.679 15.8005 287.562 19.9709 285.917 23.9651C282.509 32.1884 278.866 40.2354 277.515 49.2223C276.81 53.8626 274.224 57.7393 270.346 60.6175C266.468 63.4956 263.942 67.7248 260.122 70.6617C256.597 73.3636 253.13 75.9481 248.488 76.4767C247.783 76.5354 246.902 76.9466 246.373 77.4165C241.849 81.6456 236.678 84.935 231.566 88.3417C229.098 89.9864 227.747 92.1597 227.688 95.1553C227.688 97.5049 226.337 98.7384 224.162 99.0908C222.987 99.267 221.812 99.3845 220.872 100.148C215.114 105.023 208.063 108.019 202.481 113.188C200.659 114.833 198.779 116.418 197.193 118.239C195.489 120.236 193.608 121.822 191.141 122.703C189.613 123.232 188.731 124.231 188.026 125.875C186.616 129.341 183.032 130.985 180.447 133.394C175.57 137.917 169.988 141.558 164.288 144.965C163.407 145.494 162.467 146.199 161.879 147.08C159.823 149.958 157.355 152.131 153.771 152.895C152.478 153.188 151.655 154.246 151.303 155.597C151.009 156.595 150.421 157.359 149.481 157.829C148.835 158.181 148.189 158.416 147.542 158.005C146.837 157.535 146.955 156.889 147.19 156.184C147.366 155.655 147.718 155.068 147.248 154.539C146.72 154.011 146.132 154.422 145.721 154.774C141.196 158.651 134.909 160.354 131.678 165.934C130.737 167.579 128.798 168.225 127.329 169.4C126.037 170.399 125.097 171.515 127.153 172.748C128.093 173.335 128.681 174.099 128.035 175.156C127.329 176.331 126.272 176.566 125.038 175.802C123.04 174.51 122.335 175.802 122.1 177.447C121.865 179.15 121.277 180.678 120.572 182.146C119.456 184.554 118.046 186.493 114.814 186.082C113.933 185.964 112.64 186.199 112.052 186.728C108.527 190.076 103.65 189.312 99.537 190.839C97.0692 191.779 95.3064 193.6 93.1911 195.01C89.6657 197.359 85.6701 199.18 82.9085 202.587C82.3209 203.292 81.6158 204.055 80.6757 203.82C76.974 202.939 75.3875 205.583 73.7423 207.991C72.9784 209.107 72.097 209.87 70.8631 210.282C66.7501 211.633 63.1658 213.865 59.6404 216.449C55.351 219.562 50.7092 222.323 46.0085 224.849C41.0729 227.492 36.3722 230.429 32.0242 233.894C30.2027 235.363 28.4987 236.772 25.9721 237.184C24.0918 237.477 22.6229 239.063 21.0364 240.238C20.2726 240.825 19.5675 241.883 18.5686 240.825C17.746 239.944 18.3923 239.004 18.9211 238.182C20.9777 235.128 23.8568 232.837 26.9122 230.957C30.9665 228.373 35.1971 226.141 39.3689 223.791C45.5972 220.326 51.003 216.038 55.0573 210.047C56.5262 207.873 59.2878 207.345 61.5206 206.17C64.576 204.467 67.2789 202.763 69.1004 199.533C70.5693 196.948 73.1547 195.303 76.2101 194.775C77.679 194.54 78.5017 193.835 78.7367 192.367C78.7955 191.897 78.9717 191.309 79.3243 191.074C86.4927 186.023 88.9606 176.214 98.0093 172.924C100.125 172.161 101.652 170.164 104.414 170.34C106 170.457 107.352 168.578 107.939 166.816C108.174 166.052 108.174 164.877 108.88 164.76C113.815 164.114 114.932 158.945 118.575 156.771C123.04 154.187 126.977 150.604 130.679 147.197C136.613 141.734 143.899 137.564 148.012 130.163C149.775 126.991 152.83 124.7 156.003 122.938C160.116 120.648 163.642 117.711 166.756 114.128C169.635 110.838 172.632 107.314 176.392 105.258C180.917 102.791 184.736 99.2083 189.437 97.035C190.142 96.7413 190.906 96.3301 191.434 95.8015C199.19 87.6956 209.943 82.9379 216.524 73.5398C218.11 71.249 219.756 69.8393 222.459 68.8995C225.455 68.0772 228.276 62.732 228.276 59.3252Z" fill="#F9BC15"/>
<path d="M27.7348 195.773C18.9212 203.409 10.8713 211.163 1.64633 217.565C0.353654 213.806 0.941233 212.631 3.6441 210.282C7.63963 206.757 11.4001 202.881 15.2194 199.18C18.8624 195.597 22.0353 191.662 26.9122 189.253C30.3789 187.55 32.8468 183.967 35.9609 181.5C42.8356 175.92 47.7125 168.871 52.1194 161.353C54.5284 157.183 58.4065 154.422 62.3432 151.837C68.3953 147.902 74.2711 143.732 79.7356 138.974C82.8498 136.272 86.7865 134.745 90.1945 132.571C90.6646 132.278 91.4872 132.101 91.6634 131.632C92.6623 129.106 93.6612 126.639 96.7754 125.816C97.4805 125.64 96.9517 124.407 96.8341 123.643C96.4816 121.587 97.363 119.825 99.1257 119.414C104.12 118.239 106.47 114.186 109.408 110.721C110.525 109.37 111.994 108.841 113.404 108.078C116.753 106.257 120.455 104.73 122.453 101.205C123.393 99.5607 124.92 98.8558 126.389 97.8573C133.734 92.5709 141.49 87.8131 147.366 80.7058C147.777 80.1772 148.541 79.6485 148.6 79.1199C148.952 74.6558 152.889 73.0699 155.533 70.4854C157.237 68.782 159.588 67.7248 161.115 65.7864C161.527 65.199 162.232 64.6704 162.878 64.9053C165.757 65.8451 166.756 63.1432 168.636 62.2621C173.043 60.2063 174.042 56.7995 175.393 52.6879C177.391 46.5204 181.974 41.7039 186.205 36.8286C187.791 35.0078 188.79 32.8932 190.906 31.3073C194.137 28.9578 197.839 28.2529 201.423 27.1369C209.003 24.7286 215.936 20.8519 223.164 17.6801C226.043 16.3879 228.981 15.3893 231.977 14.567C233.035 14.2733 234.21 14.0971 234.856 15.2718C235.385 16.3291 234.621 17.1515 233.858 17.7976C227.747 22.9665 223.927 29.7801 219.932 36.5349C218.933 38.1796 218.698 40.0592 218.463 41.8801C218.11 44.7582 216.935 47.284 215.525 49.8097C214.526 51.5718 213.234 53.2165 213.821 55.5073C214.056 56.4471 213.292 57.1519 212.646 57.7393C210.119 60.1476 207.593 62.6146 204.949 64.9641C204.009 65.8451 203.186 66.7262 202.481 67.8422C200.072 71.7777 196.429 73.8922 191.846 74.1859C189.202 74.3621 187.321 75.4194 185.559 77.4165C182.914 80.4709 179.33 82.468 176.099 84.7C171.28 87.9893 166.815 91.5136 162.819 95.7427C160.763 97.916 158.412 99.6194 155.592 100.559C154.123 101.029 153.065 102.028 152.008 103.026C150.128 104.73 148.365 106.668 146.25 107.96C142.254 110.31 139.962 113.775 138.611 117.946C137.318 121.999 134.674 124.172 130.561 125.17C121.689 127.344 114.403 131.749 109.585 139.914C108.116 142.381 105.295 143.908 102.357 144.613C99.4782 145.259 97.4805 146.903 96.0115 149.37C95.659 149.958 95.3652 150.78 94.8364 151.015C90.0182 152.836 87.1391 156.948 83.4961 160.237C80.7932 162.704 77.3853 163.879 74.1536 165.523C69.8055 167.697 65.9862 170.81 62.2845 174.04C54.2934 181.089 45.5972 187.256 37.3124 193.952C35.3146 195.538 33.4344 197.242 31.4366 198.769C30.3202 199.65 29.0863 201.001 27.5586 200.002C26.1484 198.769 27.6173 197.3 27.7348 195.773Z" fill="#F9BC15"/>
<path d="M167.696 165.641C169.4 166.052 170.223 165.641 171.045 164.995C174.277 162.528 177.45 160.002 181.269 158.299C184.795 156.713 187.439 153.658 189.789 150.428C191.963 147.373 193.726 143.79 198.015 142.968C198.427 142.909 198.897 142.498 199.19 142.087C201.952 137.799 206.594 136.096 210.766 133.922C214.702 131.867 217.993 129.282 220.226 125.464C221.518 123.173 223.516 121.764 225.749 120.413C231.155 117.123 236.032 113.364 239.44 107.549C240.967 104.965 242.848 102.263 244.963 99.9718C246.432 98.3859 247.313 96.6825 247.783 94.6267C248.841 89.3403 251.602 85.4636 256.479 82.8791C260.357 80.8233 263.413 77.4752 266.468 74.3034C268.055 72.6587 269.582 71.3078 272.05 72.5413C273.108 73.0699 274.166 72.4825 275.106 72.0126C279.277 70.0743 283.567 68.8408 288.267 68.5471C294.613 68.1947 299.608 64.083 304.896 60.9699C308.128 59.0316 310.83 56.5646 313.063 53.5102C313.768 52.6291 314.591 51.3956 315.942 52.0417C317.294 52.6291 316.824 54.0976 316.765 55.2136C316.647 57.4456 315.649 59.3252 314.591 61.2049C310.772 67.666 307.011 74.1859 303.133 80.6471C300.724 84.7 298.903 88.9879 297.316 93.4519C296.2 96.5651 294.555 99.3845 291.969 101.323C286.975 105.082 281.863 108.724 276.633 112.131C274.048 113.834 271.169 115.361 268.055 115.772C264.059 116.242 260.945 118.298 258.007 120.765C255.304 123.056 252.425 125.053 248.841 125.817C246.902 126.228 245.08 127.344 243.964 128.871C241.32 132.395 236.972 134.275 235.209 138.563C234.974 139.091 234.21 139.444 233.623 139.737C225.514 143.673 218.639 149.135 212.763 155.949C211.118 157.887 209.062 159.415 206.829 160.707C200.777 164.172 195.019 167.99 190.612 173.512C189.025 175.509 186.969 176.801 184.501 177.271C180.447 178.034 177.097 180.678 172.984 181.265C171.104 181.559 169.635 183.027 168.107 184.319C165.287 186.61 162.702 189.253 158.941 190.252C156.532 190.898 155.181 192.954 153.771 194.834C152.478 196.478 151.126 197.947 148.952 198.417C148.776 198.475 148.541 198.475 148.424 198.593C142.607 203.938 133.852 205.289 129.445 212.749C128.093 215.039 124.92 215.979 123.334 218.505C122.805 219.327 121.747 219.445 121.042 218.681C119.28 216.743 117.517 217.565 115.754 218.622C112.111 220.737 108.938 223.439 105.354 225.73C102.181 227.727 98.9494 229.783 95.659 231.78C93.0736 233.366 90.6646 235.186 88.2555 237.007C85.6114 239.004 82.3209 240.297 79.3243 241.824C78.5604 242.176 77.3853 242.294 76.8565 241.471C76.2101 240.473 77.0915 239.592 77.7966 238.946C81.8509 235.128 86.0227 231.31 90.8408 228.608C99.7133 223.615 108.468 218.505 117.047 213.101C122.981 209.4 127.917 204.525 133.147 199.944C133.499 199.65 133.969 199.18 133.969 198.769C134.087 194.892 137.142 193.541 139.904 192.308C145.544 189.723 149.129 185.142 152.478 180.325C154.417 177.506 156.415 174.745 158.06 171.632C159.881 167.932 164.171 166.346 167.696 165.641Z" fill="#F9BC15"/>
<path d="M181.093 1.46844C180.858 2.76068 180.035 3.46553 179.154 4.11165C173.689 8.16456 170.105 13.7447 166.756 19.5597C165.933 20.9694 165.64 22.4966 165.463 24.0238C165.111 26.7845 164.229 29.3689 162.584 31.601C161.527 33.0694 160.645 34.4791 161.115 36.4762C161.409 37.651 160.763 38.5908 159.764 39.1782C154.417 42.585 150.95 47.6952 147.425 52.7466C146.073 54.685 144.252 55.9184 141.96 56.4471C139.904 56.917 138.67 58.1505 137.906 60.2063C136.554 63.6718 133.088 65.0816 130.444 67.2549C129.739 67.8422 128.681 68.0772 128.035 68.8408C125.449 71.7777 122.1 73.5985 118.516 75.0083C115.93 76.0655 113.698 77.5927 111.641 79.4136C110.113 80.7058 109.056 82.2917 109.585 84.5238C110.29 87.7544 107.763 89.4578 105.765 90.9262C102.71 93.217 100.183 96.0364 97.2454 98.3859C94.6601 100.442 93.72 100.089 92.8974 96.9175C92.7798 96.5063 92.7798 96.0952 92.3098 96.0364C91.6634 95.9189 90.9583 96.3301 90.8996 96.8587C89.9595 102.791 83.2023 105.082 82.0859 111.015C81.6158 113.599 79.148 114.891 76.2689 115.126C71.0982 115.596 66.28 117.065 62.7546 121.235C59.6991 124.818 55.9974 127.637 52.1781 130.398C50.9442 131.279 49.4753 132.101 48.0063 132.454C43.3057 133.746 39.9565 136.742 37.4887 140.795C36.1372 142.968 34.6683 145.024 31.9067 145.611C31.0253 145.787 30.0852 146.551 29.6151 147.315C27.7348 150.017 24.3269 149.547 21.9178 151.191C20.9189 151.896 19.9788 150.721 19.3912 149.782C18.0398 147.491 16.4533 146.668 14.3968 149.077C13.1041 150.486 11.9877 149.84 10.9888 148.666C9.81368 147.315 10.0487 146.199 11.4001 145.2C14.7493 142.674 18.3336 140.442 21.4477 137.623C24.1506 135.156 26.6184 132.513 28.4987 129.458C30.0852 126.815 31.7891 124.348 34.1395 122.41C38.4288 118.709 42.248 114.539 45.8323 110.134C48.7114 106.668 52.7657 104.26 55.5273 100.794C59.1703 96.2714 63.6947 93.217 68.5716 90.3976C70.2168 89.4578 71.9208 88.0481 72.8022 86.4034C75.7988 81.0583 81.1458 78.5913 85.7289 75.1845C91.2521 71.0728 96.0115 66.1388 100.183 60.735C100.536 60.2651 101.006 59.7364 101.065 59.2078C102.064 52.1005 108.174 49.3398 112.758 45.2869C114.873 43.466 116.518 41.4689 119.632 41.0578C121.336 40.8228 121.806 38.6495 122.218 37.0636C123.569 32.0709 126.213 27.9592 130.032 24.6112C132.618 22.3204 134.498 19.501 136.848 17.034C140.785 12.8636 146.367 12.2762 151.479 10.749C153.359 10.2204 155.298 9.80922 157.002 8.92815C162.937 5.93252 169.048 3.34806 175.158 0.704852C176.686 0.0587356 178.155 -0.0587401 179.742 0.117473C180.623 0.117473 181.093 0.704852 181.093 1.46844Z" fill="#F9BC15"/>
</svg>
