<svg width="134" height="64" viewBox="0 0 134 64" fill="none" xmlns="http://www.w3.org/2000/svg">
<g clip-path="url(#clip0_17_6)">
<path d="M85.1806 32.8062C88.6767 32.8062 92.0711 32.8062 95.4993 32.8062C95.4993 43.091 95.4993 53.3248 95.4993 63.6266C92.8857 63.6266 90.289 63.6266 87.6075 63.6266C87.6075 57.432 87.6075 51.2373 87.6075 45.0427C87.5566 45.0427 87.4887 45.0427 87.4378 45.0427C86.8268 51.2204 86.2159 57.398 85.6049 63.6266C83.8738 63.6266 82.1936 63.6266 80.3946 63.6266C79.7836 57.449 79.1726 51.2543 78.5616 45.0597C78.5107 45.0597 78.4598 45.0597 78.4089 45.0597C78.4089 51.2373 78.4089 57.398 78.4089 63.6266C75.7274 63.6266 73.1138 63.6266 70.4662 63.6266C70.4662 53.3758 70.4662 43.1419 70.4662 32.8571C73.8605 32.8571 77.2718 32.8571 80.8019 32.8571C81.4977 37.7788 82.1936 42.7685 82.8894 47.7412C82.9573 47.7412 83.0252 47.7412 83.0931 47.7412C83.7889 42.7515 84.4847 37.7958 85.1806 32.8062Z" fill="white"/>
<path d="M49.7269 43.7189C47.0284 43.7189 44.4487 43.7189 41.7502 43.7189C41.7502 42.5818 41.7502 41.4617 41.7502 40.3416C41.7502 39.3233 41.1053 38.882 40.1549 39.2893C39.9512 39.3742 39.7475 39.7646 39.7475 40.0191C39.7306 45.4161 39.7306 50.83 39.7306 56.227C39.7306 56.8889 40.087 57.0417 40.647 57.0247C41.1562 57.0077 41.7502 57.1096 41.7502 56.3458C41.7672 54.4789 41.7502 52.629 41.7502 50.7452C41.3938 50.6943 41.1222 50.6603 40.7998 50.6264C40.7998 48.9462 40.7998 47.266 40.7998 45.5519C43.7528 45.5519 46.6889 45.5519 49.6929 45.5519C49.7099 45.8234 49.7269 46.095 49.7269 46.3665C49.7269 50.27 49.7269 54.1735 49.7269 58.0769C49.7269 61.641 47.3339 64.017 43.7528 64.017C41.6653 64.017 39.5609 64.034 37.4733 64.017C34.2148 64 31.7539 61.624 31.7539 58.3654C31.72 51.5429 31.72 44.7372 31.7539 37.9146C31.7709 34.69 34.2148 32.314 37.4224 32.2801C39.6287 32.2631 41.8351 32.2631 44.0414 32.2801C47.266 32.297 49.7099 34.7579 49.7269 37.9995C49.7438 39.8664 49.7269 41.7502 49.7269 43.7189Z" fill="white"/>
<path d="M133.261 43.702C130.563 43.702 127.983 43.702 125.251 43.702C125.251 42.5479 125.234 41.3938 125.251 40.2567C125.268 39.6458 125.166 39.2215 124.402 39.2215C123.621 39.2215 123.536 39.6458 123.553 40.2567C123.57 40.9865 123.604 41.7333 123.553 42.463C123.503 43.2437 123.842 43.702 124.504 44.0753C126.829 45.3652 129.103 46.7399 131.428 48.0128C132.701 48.7086 133.329 49.6251 133.278 51.1355C133.193 53.4776 133.261 55.8197 133.244 58.1788C133.227 61.5901 130.834 63.9831 127.423 64C125.352 64 123.299 64.017 121.228 64C118.072 63.9831 115.628 61.5901 115.577 58.4333C115.543 56.4646 115.577 54.4959 115.577 52.4763C118.241 52.4763 120.838 52.4763 123.553 52.4763C123.553 53.6473 123.57 54.8184 123.553 56.0064C123.536 56.6344 123.655 57.0417 124.419 57.0417C125.2 57.0417 125.268 56.6004 125.251 55.9894C125.234 55.1408 125.217 54.2923 125.251 53.4437C125.285 52.7309 124.979 52.2896 124.351 51.9502C122.043 50.7113 119.752 49.4044 117.427 48.1995C116.103 47.5036 115.492 46.5532 115.543 45.0258C115.628 42.7346 115.56 40.4434 115.56 38.1523C115.577 34.6222 117.953 32.2631 121.483 32.2631C123.486 32.2631 125.505 32.2461 127.508 32.2631C130.766 32.2801 133.193 34.6731 133.227 37.9146C133.278 39.8324 133.261 41.7502 133.261 43.702Z" fill="white"/>
<path d="M64.2206 2.07056C68.0562 2.07056 71.8409 1.9857 75.6256 2.1045C78.2052 2.17239 80.2418 4.46356 80.2588 7.06022C80.2927 9.60596 80.2758 12.1517 80.2588 14.6974C80.2418 17.0565 80.1061 17.2602 77.9846 17.973C78.0016 18.0239 78.0185 18.0918 78.0525 18.1087C79.9533 18.6179 80.2418 18.9573 80.2588 20.926C80.2758 23.947 80.2588 26.9849 80.2588 30.0059C80.2588 30.0568 80.2249 30.1077 80.1909 30.1925C77.8488 30.1925 75.4728 30.1925 72.978 30.1925C72.978 29.904 72.978 29.5985 72.978 29.31C72.978 26.934 72.978 24.558 72.978 22.1819C72.978 21.6219 72.8761 21.2655 72.1973 21.2485C71.5184 21.2485 71.4166 21.5879 71.4166 22.165C71.4336 24.8125 71.4166 27.4771 71.4166 30.1925C68.9896 30.1925 66.6306 30.1925 64.2036 30.1925C64.2206 20.8412 64.2206 11.5068 64.2206 2.07056ZM71.4675 15.8176C72.9101 15.9703 72.961 15.9194 72.961 14.6296C72.961 12.9663 72.961 11.3031 72.961 9.63991C72.961 8.38401 72.8422 8.28218 71.4675 8.51978C71.4675 10.9298 71.4675 13.3397 71.4675 15.8176Z" fill="white"/>
<path d="M82.0069 30.2265C82.0069 20.8072 82.0069 11.4898 82.0069 2.1045C82.2615 2.08753 82.4991 2.05359 82.7536 2.05359C86.0971 2.05359 89.4235 2.05359 92.7669 2.05359C95.8557 2.05359 98.0621 4.24293 98.0621 7.34874C98.079 13.2039 98.079 19.0592 98.0621 24.9144C98.0451 28.0711 95.8557 30.2265 92.699 30.2265C89.1689 30.2265 85.6388 30.2265 82.0069 30.2265ZM89.3217 8.46886C89.3217 13.6113 89.3217 18.7028 89.3217 23.7942C90.7473 23.93 90.7982 23.8961 90.7982 22.5723C90.7982 18.2785 90.7982 13.9846 90.7982 9.69082C90.7982 8.36703 90.7473 8.33309 89.3217 8.46886Z" fill="white"/>
<path d="M99.6744 2.08752C102.067 2.08752 104.426 2.08752 106.904 2.08752C106.904 2.44393 106.904 2.76639 106.904 3.08885C106.904 9.79264 106.921 16.4964 106.887 23.2002C106.887 23.93 107.108 24.3204 107.838 24.1337C108.075 24.0827 108.296 23.7433 108.415 23.5057C108.5 23.319 108.432 23.0645 108.432 22.8438C108.432 16.2588 108.432 9.65687 108.432 3.07188C108.432 2.76639 108.432 2.4609 108.432 2.1045C110.876 2.1045 113.269 2.1045 115.73 2.1045C115.73 2.44393 115.73 2.73245 115.73 3.03794C115.73 10.3697 115.73 17.6844 115.73 25.0162C115.73 28.4445 113.591 30.5659 110.163 30.5659C108.33 30.5659 106.48 30.5829 104.647 30.5659C101.898 30.532 99.6404 28.3766 99.6234 25.6272C99.5895 17.9051 99.6065 10.183 99.6065 2.4609C99.6235 2.3421 99.6574 2.24027 99.6744 2.08752Z" fill="white"/>
<path d="M112.098 44.6014C112.098 47.0114 112.098 49.2517 112.098 51.6107C109.891 51.6107 107.702 51.6107 105.462 51.6107C105.462 53.3418 105.462 54.9541 105.462 56.6513C108.228 56.6513 110.96 56.6513 113.761 56.6513C113.761 59.0103 113.761 61.2676 113.761 63.6097C108.33 63.6097 102.933 63.6097 97.468 63.6097C97.468 53.3418 97.468 43.091 97.468 32.7892C102.916 32.7892 108.313 32.7892 113.778 32.7892C113.778 35.0973 113.778 37.3376 113.778 39.6966C111.011 39.6966 108.262 39.6966 105.462 39.6966C105.462 41.3599 105.462 42.9382 105.462 44.6014C107.617 44.6014 109.806 44.6014 112.098 44.6014Z" fill="white"/>
<path d="M63.8642 32.7722C65.9178 43.108 67.9374 53.3418 69.991 63.6267C67.2416 63.6267 64.594 63.6267 61.8785 63.6267C61.7937 62.795 61.7088 61.9804 61.624 61.1149C60.6226 61.1149 59.6383 61.1149 58.5521 61.1149C58.4672 61.9125 58.3654 62.7272 58.2806 63.6097C55.599 63.6097 52.9515 63.6097 50.1851 63.6097C50.4397 62.3368 50.6773 61.0809 50.9318 59.825C52.6799 51.0507 54.428 42.2763 56.1421 33.485C56.2609 32.908 56.4476 32.7553 57.0077 32.7722C59.2479 32.7892 61.5221 32.7722 63.8642 32.7722ZM61.0809 54.0886C60.7754 50.5246 60.4699 47.0284 60.1644 43.5322C60.0965 43.5322 60.0286 43.5322 59.9777 43.5322C59.6892 47.0284 59.4007 50.5246 59.1122 54.0886C59.7741 54.0886 60.385 54.0886 61.0809 54.0886Z" fill="white"/>
<path d="M124.724 20.1114C124.724 21.0957 124.708 22.0462 124.724 22.9966C124.724 23.5566 124.521 24.2525 125.505 24.2185C126.49 24.2016 126.235 23.4887 126.252 22.9457C126.269 22.3516 126.218 21.7576 126.269 21.1636C126.337 20.332 125.963 19.8738 125.251 19.5004C123.18 18.4142 121.143 17.2432 119.056 16.157C117.902 15.563 117.359 14.7144 117.41 13.3737C117.478 11.2352 117.41 9.07984 117.427 6.92444C117.444 3.86955 119.633 1.69718 122.688 1.69718C124.589 1.69718 126.473 1.68021 128.373 1.69718C131.293 1.71415 133.516 3.93743 133.55 6.85655C133.567 8.57069 133.55 10.3018 133.55 12.1347C132.294 12.1347 131.089 12.1347 129.884 12.1347C128.696 12.1347 127.525 12.1347 126.252 12.1347C126.252 10.9976 126.235 9.96236 126.269 8.92709C126.286 8.33308 126.099 8.0276 125.454 8.0276C124.843 8.0276 124.708 8.31611 124.691 8.87618C124.64 11.8971 124.623 11.8971 127.287 13.4076C128.866 14.3071 130.41 15.2236 132.005 16.0891C133.075 16.6831 133.601 17.4978 133.567 18.7537C133.516 20.926 133.567 23.1154 133.55 25.2877C133.533 28.3087 131.326 30.515 128.305 30.532C126.405 30.5489 124.521 30.5489 122.62 30.532C119.684 30.515 117.478 28.3257 117.444 25.3896C117.427 23.6415 117.444 21.8934 117.444 20.0774C119.871 20.1114 122.247 20.1114 124.724 20.1114Z" fill="white"/>
<path d="M32.297 30.1586C32.297 20.8242 32.297 11.5068 32.297 2.05359C32.5516 2.05359 32.8231 2.05359 33.0947 2.05359C36.1835 2.05359 39.2554 2.05359 42.3442 2.05359C45.5179 2.05359 47.6903 4.24293 47.7072 7.45057C47.7072 10.3018 47.7072 13.153 47.7072 16.0212C47.7072 19.127 45.5688 21.3164 42.463 21.3673C41.4277 21.3843 40.3755 21.3673 39.2384 21.3673C39.2384 24.3204 39.2384 27.2055 39.2384 30.1586C36.8624 30.1586 34.6051 30.1586 32.297 30.1586ZM39.2214 14.9181C40.7319 15.0199 40.7319 15.0199 40.7319 13.6282C40.7319 12.3045 40.7319 10.9807 40.7319 9.65688C40.7319 8.35006 40.5452 8.21429 39.2214 8.55372C39.2214 10.6582 39.2214 12.7457 39.2214 14.9181Z" fill="white"/>
<path d="M45.6876 30.1416C47.5375 20.7903 49.3874 11.4389 51.2543 2.07056C53.5794 2.07056 55.8197 2.07056 58.1618 2.07056C60.0117 11.4219 61.8616 20.7733 63.7115 30.1756C61.2336 30.1756 58.8406 30.1756 56.3458 30.1756C56.2609 29.4458 56.1931 28.699 56.0912 27.9014C55.1748 27.9014 54.2583 27.9014 53.2909 27.9014C53.2061 28.6311 53.1382 29.3609 53.0533 30.1586C50.6264 30.1416 48.1994 30.1416 45.6876 30.1416ZM55.616 21.52C55.3275 18.2106 55.056 14.986 54.7844 11.7614C54.7335 11.7614 54.6826 11.7614 54.6317 11.7614C54.3601 15.0029 54.1055 18.2445 53.834 21.52C54.445 21.52 54.9711 21.52 55.616 21.52Z" fill="white"/>
<path d="M12.576 36.8454C11.0995 35.2161 10.1151 33.5699 9.80962 31.5502C9.70779 30.8884 9.58899 30.2434 9.47018 29.5815C9.41927 29.293 9.35138 29.0554 8.96104 29.2761C8.24823 29.7003 8.04457 29.6155 7.94274 28.8008C7.67119 26.7643 8.0276 24.8634 9.23258 23.1663C9.55504 22.708 9.91145 22.2668 10.2848 21.7916C10.6243 22.1649 10.3697 22.4025 10.2679 22.6401C9.89448 23.4548 9.82659 24.3203 9.82659 25.2029C9.82659 25.7969 10.0302 25.9666 10.5224 25.5423C10.6243 25.4405 10.76 25.3726 10.8788 25.2877C11.0485 25.1859 11.1843 24.9483 11.4049 25.0671C11.6256 25.1859 11.5238 25.4235 11.5068 25.6102C11.1673 29.293 11.2522 32.925 12.6099 36.4211C12.6269 36.489 12.593 36.5399 12.576 36.8454Z" fill="#F9BC00"/>
<path d="M26.5776 21.4861C26.1872 20.4678 25.2538 20.1962 24.4901 19.704C22.9456 18.7197 22.5383 17.0565 23.4548 15.6478C23.7094 15.7666 23.6584 16.0382 23.7094 16.2418C23.8791 17.0395 24.3373 17.5996 25.0671 17.956C25.3726 18.1087 25.695 18.2445 26.0005 18.4142C27.3073 19.161 27.4771 19.9586 26.5776 21.4861Z" fill="#F9BC00"/>
<path d="M25.4235 24.8465C26.4248 24.6258 27.4092 24.5919 28.3087 25.0162C28.6142 25.152 29.1064 24.7616 29.1573 25.2538C29.2252 25.9666 29.2252 26.7134 29.1064 27.4092C29.0555 27.7317 28.733 27.4601 28.5802 27.3074C27.6977 26.2891 26.6455 25.4914 25.4235 24.8465Z" fill="#F9BC00"/>
<path d="M15.0369 15.6818C15.0199 16.3606 14.4598 16.9037 13.7979 16.8698C13.2549 16.8358 12.4742 15.9872 12.542 15.4102C12.6099 14.8671 12.8306 14.3919 13.5094 14.4089C14.2901 14.4089 15.0369 15.0538 15.0369 15.6818Z" fill="#F9BC00"/>
<path d="M18.2106 31.3805C17.7014 31.3296 16.9886 31.3466 16.9037 30.4811C16.8528 29.904 17.7354 29.2591 18.4651 29.2421C19.161 29.2421 19.4495 29.6155 19.4325 30.2774C19.4325 31.0241 19.1101 31.4145 18.2106 31.3805Z" fill="#F9BC00"/>
<path d="M21.2655 14.5616C21.2824 15.1896 20.7054 15.7666 20.1114 15.7836C19.5853 15.7836 18.7706 15.0878 18.7537 14.6295C18.7537 14.1204 19.4325 13.5943 20.1453 13.5603C20.8751 13.5264 21.1806 13.9507 21.2655 14.5616Z" fill="#F9BC00"/>
<path d="M19.0761 9.80963C19.3477 9.80963 19.6531 9.9454 19.6871 10.3867C19.755 11.0825 18.8555 12.2196 18.2106 12.2366C17.6844 12.2366 17.2092 12.0499 17.2092 11.405C17.1923 10.7091 18.1936 9.84357 19.0761 9.80963Z" fill="#F9BC00"/>
<path d="M20.2811 18.0239C20.2641 17.7353 20.2302 17.2771 20.8921 17.2771C21.537 17.2771 22.725 18.1087 22.6741 18.5669C22.6062 19.2288 22.114 19.4664 21.52 19.5004C20.7224 19.5343 20.2981 19.0591 20.2811 18.0239Z" fill="#F9BC00"/>
<path d="M15.58 34.707C15.58 34.079 15.7836 33.5869 16.4795 33.5699C16.9547 33.5529 17.2432 33.8923 17.2092 34.3675C17.1583 35.0294 16.7171 35.4877 16.14 35.5725C15.58 35.6744 15.6309 35.0973 15.58 34.707Z" fill="#F9BC00"/>
<path d="M12.9324 30.8544C12.9154 30.3962 13.2039 30.2434 13.6452 30.2774C14.2053 30.3113 14.6974 30.4641 14.6805 31.1599C14.6635 31.6351 14.375 31.8897 13.8828 31.8727C13.2888 31.8557 12.9154 31.5672 12.9324 30.8544Z" fill="#F9BC00"/>
<path d="M7.34872 23.0984C7.36569 23.7433 7.06021 24.1676 6.44923 24.2864C6.04191 24.3713 5.90614 24.0149 5.88916 23.6754C5.83825 23.0984 6.39831 22.2668 6.8226 22.2498C7.17901 22.2329 7.34872 22.5044 7.34872 23.0984Z" fill="#F9BC00"/>
<path d="M25.6781 15.2236C25.695 14.8163 25.7799 14.4089 26.2381 14.4938C26.7133 14.5787 27.2395 14.7314 27.2904 15.3593C27.3243 15.8176 27.1376 16.2079 26.6285 16.2249C25.9496 16.2588 25.7969 15.7157 25.6781 15.2236Z" fill="#F9BC00"/>
<path d="M11.0485 16.6831C11.4049 16.751 11.8123 16.8359 11.8292 17.3111C11.8462 17.7523 11.5068 18.0069 11.0995 18.0069C10.6582 18.0069 10.4376 17.6675 10.4206 17.2601C10.4206 16.8698 10.6412 16.6661 11.0485 16.6831Z" fill="#F9BC00"/>
<path d="M23.6584 11.6426C23.302 11.6426 22.9626 11.5917 22.9796 11.1674C22.9966 10.7431 23.336 10.6073 23.7094 10.6073C24.0488 10.6243 24.4901 10.6412 24.4901 11.0825C24.4731 11.5577 23.9979 11.5577 23.6584 11.6426Z" fill="#F9BC00"/>
<path d="M12.9324 35.5386C12.9494 35.3179 12.9324 35.0125 13.2549 35.0294C13.6961 35.0464 13.6792 35.4198 13.6961 35.7422C13.7131 35.9968 13.5943 36.2344 13.3058 36.2005C12.9324 36.1665 12.9494 35.8271 12.9324 35.5386Z" fill="#F9BC00"/>
<path d="M29.1742 40.4264C29.1742 40.1549 29.31 39.6966 29.0215 39.6288C27.9523 39.3742 27.0867 38.5086 25.9157 38.5595C25.3726 38.5765 24.8295 38.7293 24.2694 38.6444C23.7094 38.5595 23.353 38.0843 22.8099 37.8298C22.6741 40.0191 23.6924 41.5126 25.3047 42.7006C25.8817 43.1249 26.5097 43.5153 27.0528 44.0074C27.7147 44.6014 27.5959 45.3652 26.7982 45.6706C25.3217 46.2477 23.8282 46.7229 22.2159 46.5871C21.6728 46.5362 21.1976 46.5871 20.7563 46.9775C20.2811 47.4018 19.8568 47.249 19.5513 46.7059C19.4495 46.5362 19.3646 46.3495 19.2289 46.1798C18.7367 45.6028 18.9573 45.3821 19.6362 45.3652C19.9247 45.3652 20.2132 45.3652 20.5017 45.3312C21.5709 45.1954 22.6911 45.2124 23.7433 44.6863C23.4039 44.4147 23.0814 44.5166 22.7759 44.5166C21.5031 44.4657 20.2132 44.3808 18.9573 44.1602C18.6349 44.1093 18.3294 44.0244 18.0748 43.8207C17.922 43.7019 17.6844 43.6001 17.7693 43.3625C17.8542 43.1588 18.0748 43.2267 18.2275 43.2437C18.6688 43.2777 19.0931 43.3625 19.5344 43.3965C20.4848 43.4643 21.4352 43.4813 22.3347 43.0231C21.6558 42.8024 20.9769 42.7006 20.2981 42.5479C19.3307 42.3272 18.3803 42.0557 17.5487 41.4787C17.345 41.3429 17.0395 41.1562 17.1753 40.8677C17.328 40.5452 17.6335 40.7659 17.8711 40.8337C18.3973 41.0035 18.9234 41.2071 19.4495 41.3259C20.0096 41.4447 20.5866 41.6823 21.2994 41.292C20.2641 40.8677 19.3646 40.4773 18.5839 39.8664C17.6675 39.1705 17.5656 38.5765 18.3973 37.7958C19.6701 36.5908 20.6036 35.1822 21.2994 33.5869C21.4691 33.2135 21.6049 32.9419 22.0462 33.2644C22.1819 33.3662 22.3347 33.519 22.5214 33.4002C22.759 33.2644 22.6232 33.0268 22.5723 32.8571C22.1989 31.6351 22.1819 30.3792 22.4874 29.1573C22.9117 27.4601 22.4365 25.5762 23.5906 24.0318C23.7263 23.8451 23.7094 23.5227 23.7433 23.2681C23.7603 23.0305 23.7773 22.759 23.5227 22.6571C23.2851 22.5553 23.1833 22.8099 23.0475 22.9626C22.8778 23.1663 22.6911 23.3699 22.3856 23.2002C22.0631 23.0135 22.148 22.708 22.2328 22.4195C22.3856 21.8595 22.5383 21.2994 22.6741 20.7393C22.708 20.5696 22.8099 20.366 22.6232 20.2641C22.4535 20.1623 22.3007 20.332 22.165 20.4338C21.5879 20.909 21.2315 21.537 20.8921 22.1989C20.7224 22.5383 20.5017 22.8268 20.0774 22.5892C19.3816 22.2159 18.6688 21.8764 18.0408 21.4182C17.1583 20.7902 17.0395 20.0265 17.4638 19.0252C17.7863 18.2954 18.3633 17.7863 18.9064 17.2092C17.7863 17.328 16.8868 17.8202 16.3607 18.8385C16.0721 19.3986 15.8515 20.0096 15.6139 20.6036C15.3933 21.1636 15.0029 21.3503 14.4259 21.1466C13.9677 20.9769 13.5264 20.7733 13.0172 20.5526C13.0172 21.5879 13.5773 22.3177 13.9167 23.1323C14.4259 24.3034 14.4598 24.3034 13.2379 24.4901C14.1374 25.4065 14.969 26.2721 16.3437 26.1872C17.1923 26.1363 18.0408 26.2551 18.8385 26.5097C20.0944 26.9 20.8242 28.105 20.5357 29.3779C20.0774 31.4654 19.144 33.2983 17.6675 34.8767C16.5643 36.0477 15.2575 37.083 14.4938 38.5426C14.1034 39.2723 13.6622 39.2554 13.0851 38.9329C12.559 38.6444 12.0499 38.3389 11.4898 37.9995C11.2861 38.7971 11.7953 39.476 11.5407 40.2737C10.5394 39.1875 9.94538 38.0334 9.63989 36.6927C9.53806 36.2684 9.62292 35.4877 9.19863 35.5046C8.68948 35.5216 8.6216 36.2684 8.41794 36.7436C8.29913 37.0321 8.35005 37.5073 7.97667 37.5073C7.58633 37.5073 7.51844 37.0491 7.34872 36.7436C7.26387 36.5908 7.22992 36.4211 7.17901 36.2514C6.585 34.6052 6.90746 32.908 6.8226 31.2278C6.80563 30.8714 6.95838 30.481 6.61894 30.1246C6.26254 30.4132 6.04191 30.8035 5.85522 31.1769C5.58368 31.703 5.38002 31.7539 5.02361 31.2278C4.15806 29.938 3.66588 28.5293 3.56405 26.9849C3.36039 23.7263 4.37869 20.8581 6.26254 18.2615C6.66986 17.7014 7.14506 17.4299 7.82393 17.5487C8.38399 17.6505 8.75737 17.3959 8.91011 16.9037C9.11377 16.2588 9.57201 15.8854 10.149 15.6309C11.965 14.7993 13.153 13.3906 13.9167 11.5916C14.341 10.5903 14.9011 9.67383 15.8685 9.07982C16.3267 8.79131 16.3437 8.46884 16.0043 8.0785C13.8828 5.60064 11.4389 3.68285 8.12942 3.22461C7.46753 3.13975 6.80563 3.0549 6.14374 2.98701C7.26387 2.32512 8.43491 2.24026 9.62292 2.29117C12.6099 2.44392 15.2405 3.66588 17.8372 5.04058C18.1936 5.22726 18.6009 5.36304 18.8046 5.75338C19.0422 6.1607 18.4991 6.39831 18.55 6.85654C19.5004 6.51711 20.4338 6.17768 21.4352 6.22859C22.2498 6.27951 22.9456 6.55105 23.0135 7.43358C23.1833 9.8096 25.4574 10.4885 26.6285 12.2365C26.7812 11.6765 26.5606 11.337 26.3909 11.0316C26.0005 10.2848 25.5423 9.572 25.152 8.82525C24.4052 7.38266 24.8634 6.27951 26.3909 5.71944C26.6624 5.61761 26.9679 5.60064 27.2225 5.48184C27.8335 5.22726 28.7499 5.6855 29.0554 5.02361C29.327 4.44657 29.1233 3.6489 29.1742 2.95307C29.2421 2.20632 28.9027 2.00266 28.1899 2.01963C25.8648 2.05357 23.6245 2.54575 21.4352 3.2925C20.926 3.46222 20.4338 3.59799 19.9247 3.30947C17.2262 1.799 14.341 0.933443 11.3371 0.254578C8.5028 -0.390344 6.12677 0.509153 3.81863 1.88385C3.25856 2.22329 2.8173 2.74941 2.85124 3.46222C2.98702 5.87219 3.08885 8.28216 4.03926 10.5564C4.58235 11.8462 5.17636 13.1021 5.88916 14.3071C6.17768 14.7823 6.1098 15.1557 5.71945 15.546C2.61364 18.6009 1.01831 22.3856 0.322471 26.6285C-0.593996 32.1612 0.492187 37.2527 3.49617 41.9708C3.66588 42.2424 3.9544 42.7006 4.12412 42.6158C4.98967 42.2084 4.88784 43.0061 5.10847 43.3455C5.58368 44.0414 6.00797 44.7712 6.48317 45.467C6.97535 46.1798 7.07718 46.1628 7.56936 45.3312C8.09548 46.2816 8.58765 47.1811 9.40229 47.877C9.67384 48.0976 9.92841 48.3861 10.3188 48.2843C12.2875 47.7921 13.9677 48.6746 15.6818 49.4044C16.0212 49.5572 16.2588 49.7608 16.3097 50.1681C16.5643 52.5951 17.7014 54.6317 19.127 56.5495C19.755 57.398 20.349 58.2466 21.2485 58.8406C21.6049 59.0782 21.8934 59.2989 22.0971 58.6879C22.2668 58.1278 22.5044 58.4333 22.6741 58.6879C24.0488 60.7584 26.0854 62.0822 28.0881 63.406C28.8857 63.9321 29.1742 63.7454 29.1742 62.812C29.1912 60.6057 29.1742 58.3824 29.1742 56.1761C29.1742 50.8979 29.1742 45.6537 29.1742 40.4264ZM19.2967 24.3882C19.2289 24.7616 18.8555 24.6767 18.5839 24.7107C18.4651 24.7277 18.3463 24.7107 18.2445 24.7107C17.1753 24.7107 16.3946 24.2694 16.1061 23.5227C15.9703 23.1832 16.0382 23.0135 16.4285 23.0644C17.2602 23.1832 18.0918 23.353 18.8046 23.8282C19.0252 23.9809 19.3477 24.0997 19.2967 24.3882ZM27.3074 55.7178C26.9849 56.4816 26.7982 56.5325 26.2212 55.9385C25.6611 55.3445 25.152 54.7165 24.7956 53.9698C24.5919 53.5625 24.4392 53.3588 24.0827 53.834C23.7603 54.2753 23.4209 54.1395 23.1493 53.7831C22.2668 52.5611 21.5879 51.2713 21.52 49.8626C21.5031 48.7086 21.6558 48.5728 22.5892 48.8613C22.9117 48.9631 23.2172 48.9462 23.5397 48.8783C24.7616 48.6407 26.0005 48.4201 27.2225 48.1824C27.7147 48.0806 27.9862 47.9788 28.0881 48.7595C28.3426 50.6603 28.0881 53.8679 27.3074 55.7178Z" fill="#F9BC00"/>
</g>
<defs>
<clipPath id="clip0_17_6">
<rect width="133.584" height="64" fill="white"/>
</clipPath>
</defs>
</svg>
